<svg width="14" height="14" viewBox="0 0 14 14" fill="none" xmlns="http://www.w3.org/2000/svg">
<path d="M8.12887 7.0328L13.7734 1.36183C14.0755 1.04783 14.0755 0.549749 13.7734 0.235742C13.4621 -0.0752972 12.9602 -0.0788984 12.6445 0.227641L6.99996 5.89861L1.35541 0.227641C1.04287 -0.0758803 0.54711 -0.0758803 0.234566 0.227641C-0.0750248 0.540448 -0.0786093 1.04462 0.226502 1.36183L5.87105 7.0328L0.226502 12.7038C-0.0142704 13.0263 0.0176548 13.4776 0.301408 13.7627C0.585161 14.0478 1.03438 14.0799 1.35541 13.838L6.99996 8.167L12.6445 13.838C12.9655 14.0799 13.4148 14.0478 13.6985 13.7627C13.9823 13.4776 14.0142 13.0263 13.7734 12.7038L8.12887 7.0328Z" fill="#70727D"/>
</svg>
