<svg width="24" height="24" viewBox="0 0 24 24" fill="none" xmlns="http://www.w3.org/2000/svg">
<path d="M13.1289 12.0328L18.7734 6.36183C19.0755 6.04783 19.0755 5.54975 18.7734 5.23574C18.4621 4.9247 17.9602 4.9211 17.6445 5.22764L12 10.8986L6.35541 5.22764C6.04287 4.92412 5.54711 4.92412 5.23457 5.22764C4.92498 5.54045 4.92139 6.04462 5.2265 6.36183L10.8711 12.0328L5.2265 17.7038C4.98573 18.0263 5.01765 18.4776 5.30141 18.7627C5.58516 19.0478 6.03438 19.0799 6.35541 18.838L12 13.167L17.6445 18.838C17.9655 19.0799 18.4148 19.0478 18.6985 18.7627C18.9823 18.4776 19.0142 18.0263 18.7734 17.7038L13.1289 12.0328Z" fill="#70727D"/>
</svg>
